<?xml version="1.0" standalone="no"?>
<!DOCTYPE svg PUBLIC "-//W3C//DTD SVG 20010904//EN"
 "http://www.w3.org/TR/2001/REC-SVG-20010904/DTD/svg10.dtd">
<svg version="1.0" xmlns="http://www.w3.org/2000/svg"
 width="800.000000pt" height="800.000000pt" viewBox="0 0 800.000000 800.000000"
 preserveAspectRatio="xMidYMid meet">
<metadata>
Created by potrace 1.14, written by Peter Selinger 2001-2017
</metadata>
<g transform="translate(0.000000,800.000000) scale(0.100000,-0.100000)"
fill="#000000" stroke="none">
<path d="M3673 6098 c2 -15 0 -25 -4 -22 -5 3 -9 12 -9 20 0 56 -95 -84 -126
-185 -10 -33 -15 -142 -20 -383 l-7 -338 -101 -62 c-311 -191 -315 -194 -452
-419 l-67 -110 -34 35 c-40 41 -89 59 -144 54 l-39 -4 -2 623 -3 622 -25 -12
c-24 -12 -25 -15 -28 -142 -2 -120 -4 -130 -25 -144 -12 -9 -137 -82 -277
-162 -241 -139 -255 -149 -258 -178 -2 -23 1 -31 12 -31 9 0 134 67 279 150
l262 150 3 -118 3 -117 -33 -28 c-18 -15 -87 -60 -152 -100 -220 -133 -461
-281 -586 -362 -140 -90 -180 -145 -180 -247 0 -56 16 -87 54 -103 44 -19 73
-10 195 59 53 29 112 63 131 74 19 11 75 43 123 71 49 28 90 51 92 51 1 0 69
38 150 84 161 93 211 115 201 91 -3 -8 -6 -53 -7 -100 -1 -46 -5 -83 -9 -80
-3 2 -7 -2 -7 -10 0 -8 4 -12 9 -9 4 3 8 1 8 -4 0 -14 -48 -44 -310 -197 -129
-75 -238 -142 -243 -149 -12 -18 -3 -51 15 -54 9 -2 123 58 252 132 129 75
238 136 241 136 3 0 5 -7 5 -15 0 -8 5 -15 10 -15 6 0 10 -32 10 -75 0 -50 4
-75 12 -75 20 0 -23 -38 -72 -64 -27 -14 -104 -58 -172 -99 -68 -40 -243 -142
-391 -227 -147 -84 -267 -157 -267 -162 0 -5 -4 -6 -10 -3 -5 3 -10 1 -10 -5
0 -6 -5 -8 -12 -4 -10 6 -10 5 -1 -8 7 -8 12 -17 10 -19 -1 -2 4 2 10 10 11
13 13 13 13 0 0 -12 2 -12 10 1 7 11 10 11 10 2 0 -10 3 -10 14 0 8 7 12 17 9
22 -3 4 6 0 21 -9 14 -10 26 -14 26 -10 0 4 8 1 17 -6 16 -13 16 -11 -1 15
-11 17 -13 25 -5 20 23 -14 51 -16 43 -2 -4 7 -3 8 5 4 17 -11 2 -29 -18 -21
-12 5 -13 3 -5 -5 12 -12 50 2 65 23 3 5 8 8 10 7 4 -2 57 18 70 26 5 3 9 3 9
1 0 -5 -325 -191 -480 -275 -201 -108 -269 -187 -258 -301 11 -110 100 -186
383 -327 107 -53 195 -101 195 -106 0 -4 5 -8 10 -8 6 0 23 -12 38 -26 15 -15
21 -23 13 -19 -9 6 -12 4 -7 -4 4 -6 11 -9 16 -6 5 3 22 -8 38 -24 16 -17 32
-27 36 -24 3 4 6 0 6 -7 0 -7 3 -10 7 -7 3 4 18 -3 31 -15 14 -13 21 -16 17
-8 -7 12 -5 12 11 -1 16 -13 38 -25 64 -34 3 -1 18 -7 33 -13 16 -7 33 -12 38
-12 6 0 7 -5 3 -12 -4 -6 -3 -8 3 -5 5 3 22 0 37 -8 14 -8 24 -10 21 -5 -3 6
1 7 9 4 9 -3 16 -10 16 -14 0 -4 10 -6 23 -6 12 1 27 -1 32 -5 6 -4 69 -27
140 -52 72 -25 207 -82 300 -127 94 -45 195 -92 225 -105 30 -13 154 -72 275
-130 531 -258 561 -268 810 -268 257 0 251 -3 1050 423 337 179 733 389 990
524 526 277 581 312 622 389 23 44 21 113 -5 164 -37 72 -105 118 -375 257
-242 124 -307 161 -243 136 16 -6 57 -11 91 -13 35 -1 61 -5 58 -9 -2 -5 8 -8
22 -8 18 0 24 4 19 13 -4 6 2 4 13 -5 23 -21 39 -23 49 -6 5 8 0 9 -14 6 -12
-4 -19 -2 -16 3 3 5 -2 12 -11 15 -11 4 -13 9 -6 13 6 4 -41 38 -104 76 -63
38 -115 75 -115 82 0 8 -5 11 -11 7 -7 -4 -6 2 2 17 11 21 10 22 -2 12 -12
-10 -15 -8 -15 7 0 10 3 17 7 14 4 -2 5 5 2 16 -3 11 -13 20 -22 21 -10 0 -11
2 -4 6 10 3 9 8 -2 20 -12 11 -13 19 -5 28 8 10 8 15 -1 21 -8 5 -9 3 -4 -6 5
-9 4 -11 -4 -6 -7 5 -9 12 -3 19 10 13 -10 71 -21 62 -4 -3 -3 0 2 6 6 7 6 21
1 34 -5 13 -6 26 -2 31 4 4 2 4 -5 0 -7 -4 -9 -14 -6 -24 3 -9 3 -14 -1 -11
-4 4 -9 19 -12 35 -3 16 -11 35 -17 44 -10 13 -10 13 5 2 15 -12 16 -9 4 40
-14 58 -80 191 -90 181 -3 -4 -6 0 -6 8 0 8 -13 28 -28 44 -15 17 -22 24 -17
15 9 -13 8 -13 -8 -1 -9 8 -15 16 -13 19 10 9 -15 42 -27 36 -9 -5 -9 -4 -1 5
8 8 28 2 80 -25 229 -120 263 -135 303 -136 53 -1 86 22 101 68 25 75 -15 186
-86 238 -36 26 -188 117 -599 359 -93 55 -178 106 -187 115 -10 8 -18 12 -18
7 0 -4 -7 -2 -15 5 -20 17 -23 248 -2 233 6 -6 75 -43 152 -83 77 -40 184 -97
238 -127 54 -29 102 -53 107 -53 16 0 28 34 20 55 -5 12 -62 49 -146 94 -77
40 -196 105 -265 143 l-127 69 -8 57 c-4 31 -8 84 -10 117 -4 102 -4 102 -13
85 -5 -8 -11 -171 -13 -362 -4 -343 -4 -348 -26 -366 -14 -12 -24 -36 -28 -65
l-7 -46 -29 43 c-40 61 -44 64 -167 128 -35 18 -70 43 -78 54 -9 15 -14 55
-14 136 0 106 -1 115 -22 127 l-22 14 20 -24 20 -24 -26 23 c-14 12 -29 19
-34 15 -4 -5 -6 -1 -2 9 8 22 -3 30 -21 15 -13 -9 -14 -9 -8 1 6 11 -5 17 -26
13 -5 0 -8 4 -8 10 0 8 -4 8 -14 0 -10 -9 -16 -8 -26 4 -7 8 -16 13 -20 10 -5
-3 -11 -1 -15 5 -4 6 -10 8 -14 6 -7 -5 -9 1 -13 43 -1 11 -6 17 -11 14 -4 -2
-5 -13 -2 -23 3 -10 0 -22 -6 -26 -8 -4 -9 -3 -5 4 4 7 2 12 -4 12 -6 0 -8 5
-4 11 4 7 1 10 -7 7 -8 -3 -13 -11 -12 -17 4 -16 -2 -14 -18 6 -8 9 -9 14 -3
10 7 -4 14 0 17 8 5 11 1 12 -18 5 -21 -8 -24 -7 -22 8 1 9 7 24 12 32 8 13 7
13 -8 1 -16 -12 -22 -8 -18 12 1 5 -3 5 -9 2 -8 -5 -6 -13 6 -26 12 -13 13
-19 4 -19 -22 0 -40 33 -27 50 9 12 9 13 -3 3 -11 -10 -17 -10 -31 3 -17 15
-18 14 -14 -15 3 -23 1 -30 -8 -24 -7 4 -16 8 -22 9 -5 0 -16 2 -24 2 -10 2
-11 5 -2 16 9 11 9 16 0 22 -7 4 -9 3 -5 -4 3 -6 2 -13 -3 -16 -5 -4 -8 -17
-6 -31 1 -14 -1 -25 -5 -25 -4 0 -10 -9 -13 -21 -5 -18 -8 -19 -29 -8 -28 16
-67 19 -74 7 -3 -4 -11 -5 -17 -2 -7 4 -9 4 -5 -1 4 -4 3 -14 -3 -22 -6 -7 -8
-13 -5 -13 4 0 2 -9 -4 -19 -6 -12 -6 -22 -1 -26 5 -3 12 3 14 12 4 15 5 15 6
-2 1 -16 3 -17 10 -6 6 9 5 21 -2 32 -9 14 -8 21 2 31 11 11 12 9 7 -9 -4 -12
-2 -24 3 -28 7 -4 9 5 7 24 -2 17 1 28 6 25 5 -3 8 -11 7 -17 -3 -25 1 -38 11
-32 5 3 7 13 4 23 -5 15 -4 15 6 -1 10 -15 14 -16 28 -5 9 7 7 1 -6 -13 -12
-14 -19 -30 -15 -34 5 -5 0 -3 -9 4 -15 11 -18 11 -18 0 0 -11 -2 -11 -10 1
-9 13 -10 13 -11 0 -1 -8 -1 -19 0 -24 1 -5 -4 -4 -12 2 -11 10 -17 9 -26 -1
-9 -11 -4 -14 25 -15 25 -1 33 2 27 11 -4 8 -1 7 10 -2 9 -7 17 -14 17 -16 0
-1 -29 -3 -65 -4 -36 -1 -65 2 -64 6 1 4 0 10 -1 13 -1 3 -3 17 -4 32 -2 31
12 24 16 -7 4 -22 21 -27 24 -7 1 6 -3 12 -9 12 -8 0 -8 3 1 8 7 5 15 22 18
38 2 16 1 24 -3 19 -5 -6 -15 -10 -23 -10 -28 2 -41 -18 -38 -57 3 -44 -10
-58 -54 -58 -70 0 -167 -47 -418 -201 l-125 -77 -3 289 c-2 282 -2 290 22 357
13 38 35 86 48 108 36 58 39 70 16 71 -17 2 -18 0 -6 -15 12 -16 11 -16 -6 -2
-10 8 -22 23 -27 35 -8 17 -9 16 -6 -7z m900 -391 c5 -20 3 -19 -19 6 -13 15
-24 33 -24 39 0 18 37 -21 43 -45z m-175 -52 c-3 -3 -9 2 -12 12 -6 14 -5 15
5 6 7 -7 10 -15 7 -18z m-121 -22 c0 -9 -4 -10 -14 -2 -7 6 -13 12 -13 14 0 1
6 2 13 2 8 0 14 -6 14 -14z m158 -45 c5 4 5 1 1 -6 -6 -10 -11 -10 -22 -1 -8
6 -14 14 -14 16 0 3 6 0 13 -6 8 -6 18 -7 22 -3z m10 -92 c76 -20 631 -297
679 -339 24 -21 71 -97 137 -217 96 -177 148 -250 176 -250 26 0 104 -84 133
-144 46 -94 61 -167 59 -288 -2 -132 -18 -151 -43 -50 -18 75 -38 106 -87 140
-29 21 -43 23 -99 19 -83 -5 -155 -41 -232 -115 -70 -67 -109 -125 -143 -217
-15 -39 -32 -76 -38 -84 -9 -12 -9 -13 1 -7 9 5 12 -4 12 -35 0 -46 -9 -50
-12 -6 -1 15 -6 27 -10 27 -4 0 -8 9 -8 21 0 12 4 17 11 13 8 -5 8 -1 0 13 -6
11 -7 24 -3 28 4 5 2 5 -5 1 -7 -4 -9 -14 -6 -23 4 -10 2 -14 -4 -10 -7 5 -9
0 -6 -12 3 -10 0 -22 -6 -25 -7 -5 -8 -1 -4 11 3 10 3 15 -1 11 -4 -3 -14 -28
-21 -55 l-13 -48 -1 58 c-1 67 -15 74 -32 16 -11 -35 -15 -39 -25 -25 -9 13
-12 6 -18 -40 -7 -65 -23 -99 -63 -135 -29 -28 -162 -108 -441 -268 l-163 -94
-16 24 c-66 96 -162 140 -268 121 -127 -24 -276 -131 -351 -253 -20 -32 -41
-59 -46 -59 -10 0 -24 -35 -33 -83 -6 -31 -4 -35 20 -41 18 -5 25 -12 23 -24
-6 -32 -57 -46 -168 -46 -110 -1 -111 -1 -320 77 -317 118 -434 169 -723 314
-183 92 -210 108 -224 138 -13 28 -14 37 -3 50 18 22 28 19 57 -16 18 -21 92
-63 232 -133 307 -151 393 -188 716 -308 158 -59 201 -71 255 -72 l65 -1 3 55
c2 30 -1 113 -7 185 -11 129 -11 130 11 147 27 20 24 24 -22 32 -64 10 -78 14
-187 52 -128 43 -331 128 -522 217 l-65 30 -41 -46 c-22 -25 -49 -69 -60 -97
-11 -27 -21 -50 -23 -50 -2 0 -19 7 -38 16 -28 13 -33 21 -28 38 9 33 54 118
81 153 l24 32 -48 21 c-26 11 -83 41 -126 66 -42 25 -82 42 -88 38 -6 -3 -5 4
3 16 14 23 117 99 362 270 136 94 151 102 170 90 18 -11 19 -11 10 1 -12 16
-15 49 -3 49 3 0 9 8 13 18 6 18 27 54 37 62 3 3 18 30 32 60 32 65 194 317
243 377 23 28 90 77 202 146 251 156 660 401 718 430 110 56 271 69 409 33z
m1027 -331 c27 -14 83 -46 125 -71 43 -25 103 -60 133 -77 227 -125 404 -234
430 -264 27 -30 31 -41 28 -81 -3 -40 -6 -47 -26 -50 -26 -4 -8 -13 -332 161
-111 59 -161 97 -155 117 3 10 -4 25 -17 36 l-23 19 18 -22 c12 -14 15 -23 7
-28 -6 -3 -9 -3 -8 2 4 15 -34 63 -51 63 -14 0 -14 2 -1 10 10 6 11 10 3 10
-7 0 -34 21 -60 48 -25 26 -43 41 -38 33 5 -10 4 -12 -3 -7 -7 4 -12 13 -12
19 0 15 -57 53 -72 49 -8 -2 -8 1 0 11 10 12 8 14 -13 12 -14 -2 -23 1 -19 6
3 5 1 9 -5 9 -6 0 -8 6 -5 14 3 8 0 17 -7 22 -7 4 -10 3 -6 -3 4 -6 0 -16 -8
-23 -13 -11 -15 -7 -15 23 l0 35 43 -24 c23 -13 63 -35 89 -49z m-2884 -154
c-32 -23 -701 -407 -769 -442 -62 -32 -86 -30 -95 7 -17 67 22 132 109 184 29
17 97 60 152 95 55 35 138 87 185 115 47 28 132 81 190 117 58 37 137 83 175
104 l70 38 3 -101 c3 -95 1 -102 -20 -117z m3263 -408 c13 -16 12 -17 -3 -4
-10 7 -18 15 -18 17 0 8 8 3 21 -13z m-378 -483 c24 -19 57 -95 57 -131 0 -20
-80 -83 -150 -119 -25 -13 -45 -22 -45 -20 0 1 -20 -3 -45 -10 -43 -12 -108
-15 -117 -6 -3 2 3 32 13 66 48 173 200 289 287 220z m-3702 -277 c13 -16 12
-17 -3 -4 -17 13 -22 21 -14 21 2 0 10 -8 17 -17z m3117 -93 c17 -8 32 -19 32
-25 0 -5 -24 -23 -53 -39 -28 -15 -115 -65 -192 -111 -396 -234 -484 -285
-489 -285 -3 0 -6 12 -6 28 1 24 14 34 123 96 278 158 464 273 502 312 22 22
42 40 45 39 3 -1 20 -8 38 -15z m-2648 -70 c72 -36 80 -43 91 -80 14 -46 5
-86 -23 -104 -13 -8 -33 -3 -89 24 -39 19 -78 44 -85 55 -27 39 -11 145 22
145 2 0 40 -18 84 -40z m1005 -430 c32 -11 66 -27 76 -36 25 -22 34 -87 17
-121 -18 -36 -53 -36 -135 2 -65 29 -83 52 -83 110 0 72 23 80 125 45z m738
-70 c65 -57 66 -146 2 -170 -12 -5 -26 -13 -29 -19 -16 -25 -143 -71 -197 -71
-21 0 -41 -5 -45 -11 -9 -15 -24 9 -24 40 0 38 55 143 101 190 74 76 137 90
192 41z m1034 -127 c152 -75 158 -79 158 -108 0 -26 -7 -34 -60 -62 -39 -20
-62 -40 -66 -55 -8 -27 -11 -168 -4 -168 2 0 130 68 283 150 154 83 291 150
304 150 29 0 63 -33 55 -53 -3 -8 -113 -72 -244 -143 -465 -251 -438 -239
-473 -204 -18 18 -20 33 -20 184 0 121 -3 166 -13 174 -7 6 -68 38 -135 71
-67 34 -122 67 -122 74 0 24 110 78 147 73 17 -2 103 -40 190 -83z"/>
<path d="M4141 5449 c-51 -10 -86 -29 -369 -201 -152 -93 -217 -138 -227 -158
-18 -35 -19 -90 -2 -113 10 -14 145 -84 497 -255 90 -45 99 -47 180 -47 105 0
115 4 425 190 256 152 295 183 295 229 0 71 -23 88 -284 216 -134 66 -270 127
-302 135 -63 16 -143 18 -213 4z m172 -72 c20 -7 143 -64 272 -127 190 -93
236 -120 241 -139 4 -13 3 -30 -2 -38 -5 -8 -128 -85 -274 -171 l-265 -157
-71 0 -72 0 -258 130 c-279 140 -285 145 -244 197 11 15 98 73 193 129 94 56
195 115 222 132 87 52 179 68 258 44z"/>
<path d="M5089 4880 c-55 -15 -723 -453 -763 -501 -16 -18 -53 -84 -82 -144
-62 -129 -166 -377 -160 -382 2 -2 24 9 49 25 l46 29 68 -23 c70 -24 128 -30
151 -15 15 9 13 141 -2 172 -6 13 23 35 141 109 81 51 258 166 393 255 135 89
260 170 277 180 49 28 60 72 34 131 -34 75 -90 161 -109 166 -9 3 -29 1 -43
-2z m56 -126 c35 -69 45 -59 -150 -153 -187 -91 -171 -89 -183 -30 -9 46 -8
51 12 64 216 135 281 175 286 175 4 0 20 -25 35 -56z m-442 -241 c2 -21 2 -41
0 -45 -6 -12 -224 -79 -246 -76 -14 2 17 26 104 80 68 42 127 77 130 77 4 1 9
-16 12 -36z"/>
<path d="M3124 4751 c-17 -10 -44 -36 -60 -57 -34 -44 -84 -121 -84 -129 0 -2
-20 -36 -45 -75 -25 -39 -45 -74 -45 -79 0 -5 -3 -11 -7 -13 -15 -6 -51 -65
-55 -87 -4 -29 4 -33 367 -203 469 -220 712 -322 740 -311 7 2 24 34 38 71 14
37 51 130 81 208 64 164 73 203 56 243 -12 31 -10 30 -220 115 -159 64 -248
105 -505 231 -104 51 -199 96 -210 99 -11 3 -33 -2 -51 -13z m94 -69 c20 -10
114 -57 207 -104 159 -80 225 -112 335 -160 25 -11 54 -24 65 -29 11 -5 49
-19 84 -32 67 -25 68 -30 9 -41 -33 -6 -68 4 -88 24 -3 3 -18 12 -35 20 -16 8
-41 23 -54 35 -14 12 -21 14 -16 5 6 -11 3 -10 -12 3 -11 9 -23 14 -26 10 -4
-3 -7 -1 -7 6 0 7 -4 10 -9 6 -5 -3 -16 1 -24 9 -8 8 -17 12 -21 9 -3 -4 -6 0
-6 7 0 7 -3 11 -6 8 -3 -4 -17 0 -31 7 -15 8 -30 12 -35 9 -4 -3 -8 0 -8 5 0
6 -6 11 -12 11 -7 0 -25 6 -40 14 -20 11 -44 12 -101 6 -41 -5 -148 -12 -237
-16 l-161 -7 47 79 c82 137 107 153 182 116z"/>
<path d="M5394 5189 c-3 -6 -2 -15 4 -21 6 -6 12 -6 17 3 6 8 4 10 -5 4 -10
-6 -12 -4 -7 8 7 19 2 23 -9 6z"/>
<path d="M2553 6015 c0 -8 4 -12 9 -9 5 3 6 10 3 15 -9 13 -12 11 -12 -6z"/>
<path d="M4475 5801 c-3 -5 -2 -12 3 -15 5 -3 9 1 9 9 0 17 -3 19 -12 6z"/>
<path d="M4500 5780 c0 -5 0 -13 1 -16 0 -4 -5 -11 -13 -16 -11 -8 -10 -9 1
-6 13 4 28 48 16 48 -3 0 -5 -4 -5 -10z"/>
<path d="M4731 5654 c6 -8 14 -12 17 -9 3 3 14 -2 24 -12 11 -9 18 -11 18 -5
0 7 -5 12 -11 12 -5 0 -7 5 -4 10 4 6 3 10 -2 9 -4 -1 -10 0 -13 1 -3 1 -13 3
-23 5 -15 3 -16 1 -6 -11z"/>
<path d="M1253 4802 c-14 -9 -29 -1206 -15 -1201 6 2 46 24 91 49 l81 45 0
504 c-1 381 -4 509 -13 520 -9 12 -9 13 1 7 9 -5 12 5 11 41 -1 35 -3 41 -8
23 -4 -19 -13 -25 -31 -25 -14 0 -25 5 -25 12 0 6 -3 14 -7 18 -3 4 -5 0 -4
-9 1 -8 5 -18 8 -22 4 -3 4 -13 1 -22 -4 -15 -3 -15 6 -2 6 8 11 10 11 4 0 -6
-8 -18 -17 -25 -10 -7 -15 -10 -11 -5 4 5 1 23 -7 41 -7 19 -10 37 -7 41 4 4
1 4 -6 0 -7 -4 -10 -11 -8 -15 8 -12 16 -64 9 -57 -7 7 -12 27 -16 62 -2 20
-24 28 -44 16z m28 -9 c0 -5 2 -16 4 -26 3 -18 3 -18 -16 -2 -10 10 -16 22
-13 26 6 11 24 12 25 2z m116 -48 c4 -4 2 -5 -4 -1 -8 4 -13 1 -13 -8 0 -8 -3
-17 -7 -19 -5 -3 -8 5 -8 18 0 22 17 27 32 10z"/>
<path d="M1626 3823 c-11 -11 -6 -23 9 -23 8 0 15 4 15 9 0 13 -16 22 -24 14z"/>
<path d="M1736 3822 c-3 -5 1 -9 9 -9 8 0 12 4 9 9 -3 4 -7 8 -9 8 -2 0 -6 -4
-9 -8z"/>
<path d="M6871 3253 c-41 -93 -111 -151 -296 -248 -60 -32 -238 -126 -395
-210 -157 -84 -449 -239 -650 -345 -201 -106 -465 -246 -587 -311 -348 -186
-432 -228 -516 -254 -273 -87 -602 -71 -867 40 -30 13 -171 80 -314 149 -142
69 -260 126 -262 126 -2 0 -138 67 -301 148 -276 138 -605 297 -883 430 -230
109 -511 252 -552 281 -53 36 -109 94 -137 141 l-21 35 0 -85 c1 -47 7 -101
14 -122 22 -63 84 -135 155 -182 60 -40 466 -248 706 -361 50 -24 185 -89 300
-145 116 -56 302 -146 415 -200 113 -54 291 -139 395 -190 508 -246 604 -285
759 -310 246 -38 477 -12 684 79 48 21 188 92 312 158 256 137 541 288 1185
628 499 264 682 364 737 405 55 40 97 97 112 154 13 45 30 216 22 216 -1 0 -8
-12 -15 -27z"/>
</g>
</svg>
